<?xml version="1.0" encoding="utf-8"?>
<!-- Generator: Adobe Illustrator 26.0.0, SVG Export Plug-In . SVG Version: 6.00 Build 0)  -->
<svg version="1.1" id="Capa_1" xmlns="http://www.w3.org/2000/svg" xmlns:xlink="http://www.w3.org/1999/xlink" x="0px" y="0px"
	 viewBox="0 0 640 512" style="enable-background:new 0 0 640 512;" xml:space="preserve">
<style type="text/css">
	.st0{fill:#FFFFFF;}
</style>
<path class="st0" d="M144,480C64.5,480,0,415.5,0,336c0-62.8,40.2-116.2,96.2-135.9c-0.1-2.7-0.2-5.4-0.2-8.1
	c0-88.4,71.6-160,160-160c59.3,0,111,32.2,138.7,80.2C409.9,102,428.3,96,448,96c53,0,96,43,96,96c0,12.2-2.3,23.8-6.4,34.6
	C596,238.4,640,290.1,640,352c0,70.7-57.3,128-128,128H144z M223,263c-9.4,9.4-9.4,24.6,0,33.9s24.6,9.4,33.9,0l39-39V392
	c0,13.3,10.7,24,24,24s24-10.7,24-24V257.9l39,39c9.4,9.4,24.6,9.4,33.9,0s9.4-24.6,0-33.9l-80-80c-9.4-9.4-24.6-9.4-33.9,0l-80,80
	H223z"/>
</svg>
